<svg id="Layer_1" enable-background="new 0 0 24 24" height="512" viewBox="0 0 24 24" width="512" xmlns="http://www.w3.org/2000/svg"><g><g><path d="m.5 4c-.276 0-.5-.224-.5-.5v-1c0-1.378 1.122-2.5 2.5-2.5h1c.276 0 .5.224.5.5s-.224.5-.5.5h-1c-.827 0-1.5.673-1.5 1.5v1c0 .276-.224.5-.5.5z"/></g><g><path d="m19.5 4c-.276 0-.5-.224-.5-.5v-1c0-.827-.673-1.5-1.5-1.5h-1c-.276 0-.5-.224-.5-.5s.224-.5.5-.5h1c1.378 0 2.5 1.122 2.5 2.5v1c0 .276-.224.5-.5.5z"/></g><g><path d="m12.5 1h-5c-.276 0-.5-.224-.5-.5s.224-.5.5-.5h5c.276 0 .5.224.5.5s-.224.5-.5.5z"/></g><g><path d="m9.5 20h-2c-.276 0-.5-.224-.5-.5s.224-.5.5-.5h2c.276 0 .5.224.5.5s-.224.5-.5.5z"/></g><g><path d="m3.5 20h-1c-1.378 0-2.5-1.122-2.5-2.5v-1c0-.276.224-.5.5-.5s.5.224.5.5v1c0 .827.673 1.5 1.5 1.5h1c.276 0 .5.224.5.5s-.224.5-.5.5z"/></g><g><path d="m.5 13c-.276 0-.5-.224-.5-.5v-5c0-.276.224-.5.5-.5s.5.224.5.5v5c0 .276-.224.5-.5.5z"/></g><g><path d="m19.5 10c-.276 0-.5-.224-.5-.5v-2c0-.276.224-.5.5-.5s.5.224.5.5v2c0 .276-.224.5-.5.5z"/></g></g><g><path d="m19.593 24c-.063 0-.126-.012-.186-.036-.123-.049-.222-.146-.273-.268l-1.901-4.442-2.267 1.975c-.089.093-.257.162-.433.162-.366 0-.663-.297-.663-.663v-12.065c0-.52.665-.852 1.094-.506l8.844 8.84c.138.167.192.315.192.47 0 .366-.297.663-.663.663h-3.012l1.828 4.273c.109.254-.009.548-.263.656l-2.1.9c-.062.027-.13.041-.197.041zm-2.171-6.074c.037 0 .075.004.111.013.156.036.286.144.348.291l1.975 4.614 1.181-.506-1.929-4.51c-.066-.155-.05-.332.042-.472.093-.14.25-.225.417-.225h2.964l-7.661-7.658v10.515l2.224-1.938c.092-.081.208-.124.328-.124zm-3.097 2.536c-.016.012-.031.025-.045.04zm8.74-2.798h.01z"/></g></svg>